<svg xmlns="http://www.w3.org/2000/svg" viewBox="0 0 432.19 474"><defs><style>.cls-1{fill:#ff6767;}.cls-2{fill:#fff;}</style></defs><title>アセット 4</title><g id="レイヤー_2" data-name="レイヤー 2"><g id="レイヤー_6" data-name="レイヤー 6"><path class="cls-1" d="M220.33,271a398,398,0,0,0,165.82-35.95V195.26a398,398,0,0,1-165.82,36,397.88,397.88,0,0,1-166.58-36.3v39.78A397.74,397.74,0,0,0,220.33,271Z"/><path class="cls-1" d="M94.62,224.76q.16,10,.35,19.89c76.19-.11,175.12.41,252,1.33l-.33-201a199.11,199.11,0,0,0-252,0Q93.26,133.81,94.62,224.76Z"/><path class="cls-2" d="M176.94,185V138.05h23.47V185Zm23.47,23.46V185h23.46V138.05H200.41V114.59h23.46V67.66h23.46V208.44Z"/><path d="M14.25,392.89a47,47,0,0,1,64.56-2.31v-66H95.58V471.28H78.81v-9A47,47,0,0,1,14.25,460a46.58,46.58,0,0,1,0-67.07Zm33.54,64.76a31.23,31.23,0,1,0-31-31.23A30.95,30.95,0,0,0,47.79,457.65Z"/><path d="M136.66,460a47.07,47.07,0,0,1,0-67.07,47.58,47.58,0,1,1,0,67.07Zm2.72-33.54a30.92,30.92,0,1,0,31-31.23A31.13,31.13,0,0,0,139.38,426.42Z"/><path d="M244.81,471.28V324.56h16.77V471.28Z"/><path d="M358.83,471.28,320.47,432.5v38.78H303.71V324.56h16.76v91.17l33.12-32.49h23.27l-41.71,40.88,46.74,47.16Z"/><path d="M411,351a10.56,10.56,0,0,1,10.69-10.49A10.39,10.39,0,0,1,432.19,351a10.55,10.55,0,0,1-10.48,10.68A10.73,10.73,0,0,1,411,351Zm19.07,32.27v88H413.32v-88Z"/></g></g></svg>