<svg xmlns="http://www.w3.org/2000/svg" viewBox="0 0 468.33 158.16"><defs><style>.cls-1{fill:#ff6767;}.cls-2{fill:#fff;}</style></defs><title>アセット 3</title><g id="レイヤー_2" data-name="レイヤー 2"><g id="レイヤー_5" data-name="レイヤー 5"><path class="cls-1" d="M97.23,158.16a232.25,232.25,0,0,0,96.77-21V114a232.25,232.25,0,0,1-96.77,21A232.21,232.21,0,0,1,0,113.75V137A232.21,232.21,0,0,0,97.23,158.16Z"/><path class="cls-1" d="M23.86,131.18c.06,3.87.12,7.74.2,11.6,44.47-.06,102.2.24,147.05.78l-.19-117.34a116.21,116.21,0,0,0-147.06,0Q23.05,78.09,23.86,131.18Z"/><path class="cls-2" d="M71.9,108V80.57H85.59V108Zm13.69,13.69V108h13.7V80.57H85.59V66.88h13.7V39.49H113v82.16Z"/><path d="M224.41,76.3A27.4,27.4,0,0,1,262.09,75V36.42h9.78v85.63h-9.78v-5.26a27.42,27.42,0,0,1-37.68-1.34,27.19,27.19,0,0,1,0-39.15ZM244,114.1a18.23,18.23,0,1,0-18.1-18.23A18.07,18.07,0,0,0,244,114.1Z"/><path d="M295.85,115.45a27.46,27.46,0,0,1,0-39.15,27.61,27.61,0,0,1,39.27,0,27.77,27.77,0,0,1-19.58,47.34A27.66,27.66,0,0,1,295.85,115.45Zm1.59-19.58a18,18,0,1,0,18.1-18.22A18.17,18.17,0,0,0,297.44,95.87Z"/><path d="M359,122.05V36.42h9.79v85.63Z"/><path d="M425.52,122.05,403.13,99.42v22.63h-9.79V36.42h9.79V89.63l19.33-19H436L411.69,94.53,439,122.05Z"/><path d="M456,51.83a6.15,6.15,0,0,1,6.23-6.11,6.05,6.05,0,0,1,6.12,6.11,6.16,6.16,0,0,1-6.12,6.24A6.26,6.26,0,0,1,456,51.83Zm11.13,18.84v51.38h-9.79V70.67Z"/></g></g></svg>