<svg xmlns="http://www.w3.org/2000/svg" viewBox="0 0 500 500"><defs><style>.cls-1{fill:#ff6767;fill-rule:evenodd;}</style></defs><title>アセット 1</title><g id="レイヤー_2" data-name="レイヤー 2"><g id="レイヤー_1-2" data-name="レイヤー 1"><path id="長方形_1" data-name="長方形 1" class="cls-1" d="M250,44.74c66.85,0,74.77.25,101.17,1.46,24.41,1.11,37.67,5.19,46.49,8.62a77.54,77.54,0,0,1,28.79,18.73,77.41,77.41,0,0,1,18.73,28.79c3.42,8.82,7.51,22.08,8.62,46.49,1.21,26.4,1.46,34.32,1.46,101.17s-.25,74.77-1.46,101.17c-1.11,24.41-5.2,37.67-8.62,46.49a83,83,0,0,1-47.52,47.52c-8.82,3.42-22.08,7.5-46.49,8.62-26.4,1.2-34.32,1.46-101.17,1.46s-74.78-.26-101.17-1.46c-24.41-1.12-37.67-5.2-46.49-8.62a77.66,77.66,0,0,1-28.79-18.73,77.54,77.54,0,0,1-18.73-28.79c-3.43-8.82-7.51-22.08-8.62-46.49C45,324.77,44.74,316.85,44.74,250S45,175.23,46.2,148.83c1.11-24.41,5.19-37.67,8.62-46.49A77.54,77.54,0,0,1,73.55,73.55a77.54,77.54,0,0,1,28.79-18.73c8.82-3.43,22.08-7.51,46.49-8.62C175.23,45,183.15,44.74,250,44.74M250,0c-67.9,0-76.41.29-103.08,1.5S102.14,6.94,86.24,13.13A122.4,122.4,0,0,0,42,42,122.56,122.56,0,0,0,13.12,86.24c-6.18,15.9-10.4,34.07-11.62,60.68S0,182.1,0,250s.29,76.41,1.5,103.07,5.44,44.79,11.63,60.69A122.4,122.4,0,0,0,42,458a122.66,122.66,0,0,0,44.28,28.83c15.9,6.19,34.07,10.41,60.68,11.62S182.1,500,250,500s76.41-.29,103.08-1.51,44.78-5.43,60.68-11.62a127.83,127.83,0,0,0,73.12-73.11c6.18-15.9,10.4-34.08,11.62-60.69S500,317.9,500,250s-.29-76.41-1.5-103.08-5.44-44.78-11.62-60.68A122.69,122.69,0,0,0,458,42a122.56,122.56,0,0,0-44.28-28.84c-15.9-6.18-34.08-10.4-60.68-11.62S317.89,0,250,0Zm0,121.7A128.3,128.3,0,1,0,378.29,250,128.3,128.3,0,0,0,250,121.7Zm0,211.86A83.56,83.56,0,1,1,333.56,250h0A83.56,83.56,0,0,1,250,333.56ZM413.16,116.77a29.94,29.94,0,1,1-29.94-29.93,29.94,29.94,0,0,1,29.94,29.93h0Z"/></g></g></svg>