<svg xmlns="http://www.w3.org/2000/svg" viewBox="0 0 500 406.28"><defs><style>.cls-1{fill:#ff6767;}</style></defs><title>アセット 2</title><g id="レイヤー_2" data-name="レイヤー 2"><g id="レイヤー_1-2" data-name="レイヤー 1"><path class="cls-1" d="M157.24,406.28c188.68,0,291.88-156.32,291.88-291.88,0-4.44,0-8.86-.3-13.26A208.87,208.87,0,0,0,500,48a205.11,205.11,0,0,1-58.92,16.14,103,103,0,0,0,45.1-56.74A205.62,205.62,0,0,1,421,32.34,102.68,102.68,0,0,0,246.22,125.9,291.29,291.29,0,0,1,34.8,18.72,102.66,102.66,0,0,0,66.56,155.66,101.92,101.92,0,0,1,20,142.82v1.3a102.62,102.62,0,0,0,82.3,100.56A102.56,102.56,0,0,1,56,246.44a102.72,102.72,0,0,0,95.84,71.24,205.94,205.94,0,0,1-127.4,44A209.77,209.77,0,0,1,0,360.2a290.5,290.5,0,0,0,157.24,46"/></g></g></svg>