<svg xmlns="http://www.w3.org/2000/svg" viewBox="0 0 326.01 402.1"><defs><style>.cls-1{fill:#ff6767;}.cls-2{fill:#fff;}</style></defs><title>アセット 12</title><g id="レイヤー_2" data-name="レイヤー 2"><g id="レイヤー_10" data-name="レイヤー 10"><path class="cls-1" d="M166.48,244.43A358.91,358.91,0,0,0,316,212V176.12a358.92,358.92,0,0,1-149.56,32.43A358.84,358.84,0,0,1,16.22,175.8v35.89A358.83,358.83,0,0,0,166.48,244.43Z"/><path class="cls-1" d="M53.09,202.73q.13,9,.31,17.93c68.73-.09,158,.37,227.26,1.2l-.29-181.33a179.58,179.58,0,0,0-227.28,0Q51.85,120.69,53.09,202.73Z"/><path class="cls-2" d="M127.34,166.85V124.52H148.5v42.33ZM148.5,188V166.85h21.16V124.52H148.5V103.36h21.16V61h21.17V188Z"/><path d="M71.51,289V400.27H52.3l-.61-9.61c-5.95,7.93-13.26,11.44-23.33,11.44C10.22,402.1,0,391,0,369.47V351.63c0-21.5,10.22-32.79,28.36-32.79,8.54,0,15.25,2.59,20.59,8.24V289ZM49,371.75V349.34c-3.21-8.08-8.24-12.2-15.4-12.2s-11,4.12-11,14.49v17.68c0,10.22,3.81,14.49,11.13,14.49C40.71,383.8,45.74,379.68,49,371.75Z"/><path d="M88.14,367.79V353.15q0-34.31,36.14-34.31t36.13,34.31v14.64q0,34.31-36.13,34.31T88.14,367.79Zm49.71-.46V353.61c0-11.59-4-16.47-13.57-16.47S110.7,342,110.7,353.61v13.72c0,11.59,4,16.47,13.58,16.47S137.85,378.92,137.85,367.33Z"/><path d="M177,289H199.6V400.27H177Z"/><path d="M250.38,369.47l-8.69,10.21v20.59H219.12V289h22.57v62.82l26.23-31.11h26.37l-27.9,32.48,28.36,47.12H268.53Z"/><path d="M302.23,290.18H326v19.21H302.23Zm.61,30.49h22.57v79.6H302.84Z"/></g></g></svg>