<svg xmlns="http://www.w3.org/2000/svg" viewBox="0 0 433.45 113.08"><defs><style>.cls-1{fill:#ff6767;}.cls-2{fill:#fff;}</style></defs><title>アセット 11</title><g id="レイヤー_2" data-name="レイヤー 2"><g id="レイヤー_11" data-name="レイヤー 11"><path class="cls-1" d="M69.51,113.08a166.1,166.1,0,0,0,69.2-15V81.48a166.1,166.1,0,0,1-69.2,15A165.93,165.93,0,0,1,0,81.33V97.94A166.08,166.08,0,0,0,69.51,113.08Z"/><path class="cls-1" d="M17.06,93.79q.06,4.15.14,8.3c31.8,0,73.08.17,105.14.55l-.13-83.89a83.09,83.09,0,0,0-105.15,0Q16.48,55.83,17.06,93.79Z"/><path class="cls-2" d="M51.41,77.19V57.61H61.2V77.19ZM61.2,87V77.19H71V57.61H61.2V47.82H71V28.23h9.79V87Z"/><path d="M228.18,10.92v89.77H212.69l-.49-7.75c-4.8,6.4-10.7,9.23-18.82,9.23-14.64,0-22.88-9-22.88-26.32V61.46c0-17.34,8.24-26.44,22.88-26.44,6.89,0,12.3,2.09,16.6,6.64V10.92ZM210,77.7V59.62c-2.58-6.52-6.64-9.84-12.42-9.84s-8.85,3.32-8.85,11.68V75.73c0,8.24,3.07,11.68,9,11.68C203.34,87.41,207.4,84.09,210,77.7Z"/><path d="M241.59,74.5V62.69Q241.59,35,270.74,35t29.14,27.67V74.5q0,27.66-29.14,27.67T241.59,74.5Zm40.09-.37V63.06c0-9.35-3.19-13.28-10.94-13.28s-10.95,3.93-10.95,13.28V74.13c0,9.35,3.2,13.28,10.95,13.28S281.68,83.48,281.68,74.13Z"/><path d="M313.29,10.92h18.2v89.77h-18.2Z"/><path d="M372.45,75.85l-7,8.24v16.6h-18.2V10.92h18.2V61.58L386.59,36.5h21.28L385.36,62.69l22.88,38H387.08Z"/><path d="M414.26,11.9h19.19V27.39H414.26Zm.5,24.6H433v64.19h-18.2Z"/></g></g></svg>