<?xml version="1.0" encoding="utf-8"?>
<!-- Generator: Adobe Illustrator 18.0.0, SVG Export Plug-In . SVG Version: 6.00 Build 0)  -->
<!DOCTYPE svg PUBLIC "-//W3C//DTD SVG 1.1//EN" "http://www.w3.org/Graphics/SVG/1.1/DTD/svg11.dtd">
<svg version="1.1" id="Layer_1" xmlns="http://www.w3.org/2000/svg" xmlns:xlink="http://www.w3.org/1999/xlink" x="0px" y="0px"
	 viewBox="0 174.3 841.9 841.9" enable-background="new 0 174.3 841.9 841.9" xml:space="preserve">
<path fill="#E7364A" d="M834.1,272.5c-10.8-29.8-39.4-49.8-71.1-49.8h-0.4h-71.8H79.3c-31.2,0-59.6,19.6-70.7,48.8
	c-3.3,8.7-5,17.7-5,26.9v251.8l2.9,50.1c12.1,113.9,71.2,213.4,162.7,282.9c1.6,1.3,3.3,2.5,5,3.7l1,0.7
	c49.1,35.9,103.9,60.1,163.2,72.1c27.3,5.5,55.3,8.3,83.1,8.3c25.6,0,51.4-2.4,76.8-7.1c3-0.6,6.1-1.2,9.1-1.8
	c0.8-0.2,1.7-0.5,2.7-1c56.7-12.4,109.4-36,156.6-70.6l1-0.7c1.7-1.2,3.3-2.4,5-3.7c91.5-69.4,150.6-168.9,162.7-282.9l2.9-50.1
	V298.3C838.2,289.6,837.2,281,834.1,272.5z M657.4,534.8L461.1,723.1C450,733.7,435.8,739,421.5,739c-14.3,0-28.5-5.3-39.6-15.9
	L185.6,534.8c-22.8-21.9-23.6-58.1-1.7-80.9c21.9-22.8,58.1-23.6,80.9-1.7l156.7,150.3l156.7-150.3c22.8-21.9,59-21.1,80.9,1.7
	C681,476.7,680.2,512.9,657.4,534.8z"/>
</svg>
